<svg width="115" height="114" viewBox="0 0 115 114" fill="none" xmlns="http://www.w3.org/2000/svg">
<g filter="url(#filter0_d_2238_186)">
<g clip-path="url(#clip0_2238_186)">
<path d="M37.6955 78.3745C31.6313 72.7494 31.2755 63.2732 36.9007 57.2089L56.185 36.4199C61.8102 30.3558 71.2864 29.9999 77.3507 35.6252C83.4147 41.2504 83.7707 50.7265 78.1453 56.7907L58.861 77.5799C53.2358 83.6439 43.7597 83.9999 37.6955 78.3745Z" fill="white"/>
<path fill-rule="evenodd" clip-rule="evenodd" d="M36.9007 57.209C31.2755 63.2733 31.6313 72.7495 37.6955 78.3746C43.7597 84 53.2358 83.644 58.861 77.58L69.1369 66.502L47.1767 46.1313L36.9007 57.209ZM42.4667 63.0503C42.6519 62.8217 42.6169 62.4865 42.3884 62.3013C42.16 62.1161 41.8247 62.1511 41.6394 62.3794L41.0092 63.1568C40.824 63.3852 40.859 63.7206 41.0875 63.9058C41.3159 64.091 41.6512 64.056 41.8365 63.8274L42.4667 63.0503ZM40.9093 66.0781C40.9633 65.7889 40.7727 65.5108 40.4836 65.4567C40.1945 65.403 39.9163 65.5935 39.8624 65.8825C39.572 67.4382 39.6785 68.9851 40.1327 70.3752C40.2241 70.6548 40.5247 70.8073 40.8043 70.716C41.0838 70.6246 41.2364 70.324 41.145 70.0444C40.7478 68.8289 40.6508 67.4631 40.9093 66.0781ZM42.1965 72.2913C41.9916 72.0802 41.6545 72.0751 41.4435 72.2799C41.2324 72.4846 41.2273 72.8218 41.4321 73.0329L42.314 73.9417C42.5188 74.1528 42.856 74.1579 43.067 73.9531C43.2781 73.7484 43.2832 73.4112 43.0784 73.2001L42.1965 72.2913Z" fill="#5FCB88"/>
<path fill-rule="evenodd" clip-rule="evenodd" d="M32.9208 66.6797C33.6063 68.9334 34.8794 71.0413 36.731 72.7587C42.31 77.9339 51.0281 77.6067 56.2033 72.0275L73.1337 53.7761C78.309 48.1971 77.9814 39.4791 72.4025 34.3039C71.1661 33.1571 69.7758 32.2805 68.304 31.6714C71.5645 31.9179 74.7671 33.2288 77.3507 35.6253C83.4147 41.2505 83.7707 50.7266 78.1453 56.7908L58.861 77.58C53.2358 83.644 43.7597 84 37.6955 78.3746C34.3267 75.2496 32.7196 70.9363 32.9208 66.6797Z" fill="#629393" fill-opacity="0.4"/>
<path fill-rule="evenodd" clip-rule="evenodd" d="M67.7494 64.6701L76.486 55.2516C81.2614 50.1037 80.9593 42.0596 75.8114 37.2844C70.6635 32.5092 62.6195 32.8113 57.8444 37.959L49.1075 47.3776L67.7494 64.6701ZM78.1453 56.7907C83.7707 50.7265 83.4147 41.2504 77.3507 35.6252C71.2864 29.9999 61.8102 30.3558 56.1851 36.4199L45.9091 47.4977L67.8694 67.8685L78.1453 56.7907Z" fill="#1D9882"/>
<path fill-rule="evenodd" clip-rule="evenodd" d="M38.56 58.7481L47.5684 49.0367L45.9091 47.4976L36.9007 57.2088C31.2755 63.2731 31.6313 72.7493 37.6955 78.3744C43.7597 83.9997 53.2358 83.6438 58.861 77.5798L67.8694 67.8683L66.2103 66.329L57.2018 76.0405C52.4266 81.1883 44.3825 81.4903 39.2346 76.7151C34.0868 71.9399 33.7848 63.8959 38.56 58.7481Z" fill="#1D9882"/>
</g>
</g>
<defs>
<filter id="filter0_d_2238_186" x="-3.48572" y="0" width="122" height="122" filterUnits="userSpaceOnUse" color-interpolation-filters="sRGB">
<feFlood flood-opacity="0" result="BackgroundImageFix"/>
<feColorMatrix in="SourceAlpha" type="matrix" values="0 0 0 0 0 0 0 0 0 0 0 0 0 0 0 0 0 0 127 0" result="hardAlpha"/>
<feOffset dy="4"/>
<feGaussianBlur stdDeviation="2"/>
<feColorMatrix type="matrix" values="0 0 0 0 0 0 0 0 0 0 0 0 0 0 0 0 0 0 0.25 0"/>
<feBlend mode="normal" in2="BackgroundImageFix" result="effect1_dropShadow_2238_186"/>
<feBlend mode="normal" in="SourceGraphic" in2="effect1_dropShadow_2238_186" result="shape"/>
</filter>
<clipPath id="clip0_2238_186">
<rect width="50.7429" height="50.7429" fill="white" transform="translate(32.1429 31.6284)"/>
</clipPath>
</defs>
</svg>
