<svg width="1010" height="1024" viewBox="0 0 1010 1024" fill="none" xmlns="http://www.w3.org/2000/svg">
<path opacity="0.4" d="M505 0L510.947 308.744C511.581 341.651 557.079 349.673 568.929 318.968L680.114 30.8774L580.106 323.036C569.447 354.175 609.457 377.275 631.095 352.474L834.107 119.785L640.206 360.119C619.54 385.735 649.236 421.126 678.051 405.222L948.405 256L683.998 415.522C655.817 432.524 671.618 475.938 704.135 470.848L1009.22 423.092L706.201 482.562C673.904 488.9 673.904 535.1 706.201 541.438L1009.22 600.908L704.135 553.152C671.619 548.062 655.817 591.475 683.998 608.478L948.405 768L678.051 618.778C649.236 602.874 619.54 638.265 640.206 663.88L834.107 904.215L631.095 671.526C609.457 646.725 569.447 669.825 580.106 700.964L680.114 993.123L568.929 705.032C557.079 674.327 511.581 682.349 510.947 715.256L505 1024L499.053 715.256C498.419 682.349 452.921 674.327 441.071 705.032L329.886 993.123L429.894 700.964C440.553 669.825 400.543 646.725 378.905 671.526L175.893 904.215L369.794 663.881C390.46 638.265 360.764 602.874 331.949 618.778L61.595 768L326.002 608.478C354.183 591.476 338.381 548.062 305.865 553.152L0.778443 600.908L303.799 541.438C336.096 535.1 336.096 488.9 303.799 482.562L0.778443 423.092L305.865 470.848C338.381 475.938 354.183 432.525 326.002 415.522L61.595 256L331.949 405.222C360.764 421.126 390.46 385.735 369.794 360.12L175.893 119.785L378.905 352.474C400.543 377.275 440.553 354.175 429.894 323.036L329.886 30.8774L441.071 318.968C452.921 349.673 498.419 341.651 499.053 308.744L505 0Z" fill="url(#paint0_radial_2230_136)"/>
<defs>
<radialGradient id="paint0_radial_2230_136" cx="0" cy="0" r="1" gradientUnits="userSpaceOnUse" gradientTransform="translate(505 512) rotate(90) scale(512)">
<stop offset="0.149038" stop-color="white" stop-opacity="0"/>
<stop offset="1" stop-color="#86EFAC"/>
</radialGradient>
</defs>
</svg>
