<svg width="600" height="600" viewBox="0 0 600 600" fill="none" xmlns="http://www.w3.org/2000/svg">
<path opacity="0.6" d="M300 0L304.89 170.693C305.743 200.474 344.789 210.936 360.418 185.572L450 40.1924L368.889 190.462C354.737 216.679 383.321 245.263 409.538 231.111L559.808 150L414.428 239.582C389.064 255.211 399.526 294.257 429.307 295.11L600 300L429.307 304.89C399.526 305.743 389.064 344.789 414.428 360.418L559.808 450L409.538 368.889C383.321 354.737 354.737 383.321 368.889 409.538L450 559.808L360.418 414.428C344.789 389.064 305.743 399.526 304.89 429.307L300 600L295.11 429.307C294.257 399.526 255.211 389.064 239.582 414.428L150 559.808L231.111 409.538C245.263 383.321 216.679 354.737 190.462 368.889L40.1924 450L185.572 360.418C210.936 344.789 200.474 305.743 170.693 304.89L0 300L170.693 295.11C200.474 294.257 210.936 255.211 185.572 239.582L40.1924 150L190.462 231.111C216.679 245.263 245.263 216.679 231.111 190.462L150 40.1924L239.582 185.572C255.211 210.936 294.257 200.474 295.11 170.693L300 0Z" fill="url(#paint0_radial_2230_137)"/>
<defs>
<radialGradient id="paint0_radial_2230_137" cx="0" cy="0" r="1" gradientUnits="userSpaceOnUse" gradientTransform="translate(300 300) rotate(90) scale(300)">
<stop offset="0.264423" stop-color="#D9FDE6" stop-opacity="0"/>
<stop offset="1" stop-color="#86EFAC"/>
</radialGradient>
</defs>
</svg>
